<svg width="2426.6000000000004" height="1481.7" xmlns="http://www.w3.org/2000/svg" xmlns:xlink="http://www.w3.org/1999/xlink"><line x1="312.25" y1="7.0" x2="276.75" y2="31.0" style="stroke:black; stroke-width:1px;" />
<line x1="276.75" y1="38.0" x2="276.75" y2="62.0" style="stroke:black; stroke-width:1px;" />
<line x1="276.75" y1="69.0" x2="276.75" y2="93.0" style="stroke:black; stroke-width:1px;" />
<line x1="276.75" y1="100.0" x2="276.75" y2="124.0" style="stroke:black; stroke-width:1px;" />
<line x1="276.75" y1="131.0" x2="276.75" y2="155.0" style="stroke:black; stroke-width:1px;" />
<line x1="276.75" y1="162.0" x2="73.0" y2="186.0" style="stroke:black; stroke-width:1px;" />
<line x1="73.0" y1="193.0" x2="73.0" y2="217.0" style="stroke:black; stroke-width:1px;" />
<line x1="73.0" y1="224.0" x2="34.75" y2="248.0" style="stroke:black; stroke-width:1px;" />
<line x1="73.0" y1="224.0" x2="67.25" y2="248.0" style="stroke:black; stroke-width:1px;" />
<line x1="73.0" y1="224.0" x2="111.25" y2="248.0" style="stroke:black; stroke-width:1px;" />
<line x1="111.25" y1="255.0" x2="111.25" y2="279.0" style="stroke:black; stroke-width:1px;" />
<line x1="111.25" y1="286.0" x2="111.25" y2="310.0" style="stroke:black; stroke-width:1px;" />
<line x1="111.25" y1="317.0" x2="111.25" y2="341.0" style="stroke:black; stroke-width:1px;" />
<line x1="111.25" y1="348.0" x2="111.25" y2="372.0" style="stroke:black; stroke-width:1px;" />
<line x1="111.25" y1="379.0" x2="8.0" y2="403.0" style="stroke:black; stroke-width:1px;" />
<line x1="111.25" y1="379.0" x2="54.5" y2="403.0" style="stroke:black; stroke-width:1px;" />
<line x1="54.5" y1="410.0" x2="54.5" y2="434.0" style="stroke:black; stroke-width:1px;" />
<line x1="54.5" y1="441.0" x2="54.5" y2="465.0" style="stroke:black; stroke-width:1px;" />
<line x1="111.25" y1="379.0" x2="158.0" y2="403.0" style="stroke:black; stroke-width:1px;" />
<line x1="158.0" y1="410.0" x2="158.0" y2="434.0" style="stroke:black; stroke-width:1px;" />
<line x1="158.0" y1="441.0" x2="130.5" y2="465.0" style="stroke:black; stroke-width:1px;" />
<line x1="158.0" y1="441.0" x2="185.5" y2="465.0" style="stroke:black; stroke-width:1px;" />
<line x1="185.5" y1="472.0" x2="185.5" y2="496.0" style="stroke:black; stroke-width:1px;" />
<line x1="185.5" y1="503.0" x2="185.5" y2="527.0" style="stroke:black; stroke-width:1px;" />
<line x1="185.5" y1="534.0" x2="185.5" y2="558.0" style="stroke:black; stroke-width:1px;" />
<line x1="111.25" y1="379.0" x2="214.5" y2="403.0" style="stroke:black; stroke-width:1px;" />
<line x1="276.75" y1="162.0" x2="288.5" y2="186.0" style="stroke:black; stroke-width:1px;" />
<line x1="276.75" y1="162.0" x2="480.5" y2="186.0" style="stroke:black; stroke-width:1px;" />
<line x1="480.5" y1="193.0" x2="437.75" y2="217.0" style="stroke:black; stroke-width:1px;" />
<line x1="480.5" y1="193.0" x2="523.25" y2="217.0" style="stroke:black; stroke-width:1px;" />
<line x1="523.25" y1="224.0" x2="281.5" y2="248.0" style="stroke:black; stroke-width:1px;" />
<line x1="523.25" y1="224.0" x2="349.0" y2="248.0" style="stroke:black; stroke-width:1px;" />
<line x1="349.0" y1="255.0" x2="349.0" y2="279.0" style="stroke:black; stroke-width:1px;" />
<line x1="349.0" y1="286.0" x2="349.0" y2="310.0" style="stroke:black; stroke-width:1px;" />
<line x1="349.0" y1="317.0" x2="349.0" y2="341.0" style="stroke:black; stroke-width:1px;" />
<line x1="349.0" y1="348.0" x2="349.0" y2="372.0" style="stroke:black; stroke-width:1px;" />
<line x1="349.0" y1="379.0" x2="349.0" y2="403.0" style="stroke:black; stroke-width:1px;" />
<line x1="349.0" y1="410.0" x2="349.0" y2="434.0" style="stroke:black; stroke-width:1px;" />
<line x1="349.0" y1="441.0" x2="349.0" y2="465.0" style="stroke:black; stroke-width:1px;" />
<line x1="349.0" y1="472.0" x2="349.0" y2="496.0" style="stroke:black; stroke-width:1px;" />
<line x1="349.0" y1="503.0" x2="349.0" y2="527.0" style="stroke:black; stroke-width:1px;" />
<line x1="349.0" y1="534.0" x2="349.0" y2="558.0" style="stroke:black; stroke-width:1px;" />
<line x1="349.0" y1="565.0" x2="349.0" y2="589.0" style="stroke:black; stroke-width:1px;" />
<line x1="349.0" y1="596.0" x2="349.0" y2="620.0" style="stroke:black; stroke-width:1px;" />
<line x1="349.0" y1="627.0" x2="349.0" y2="651.0" style="stroke:black; stroke-width:1px;" />
<line x1="349.0" y1="658.0" x2="303.75" y2="682.0" style="stroke:black; stroke-width:1px;" />
<line x1="303.75" y1="689.0" x2="303.75" y2="713.0" style="stroke:black; stroke-width:1px;" />
<line x1="303.75" y1="720.0" x2="303.75" y2="744.0" style="stroke:black; stroke-width:1px;" />
<line x1="303.75" y1="751.0" x2="303.75" y2="775.0" style="stroke:black; stroke-width:1px;" />
<line x1="349.0" y1="658.0" x2="394.25" y2="682.0" style="stroke:black; stroke-width:1px;" />
<line x1="394.25" y1="689.0" x2="357.25" y2="713.0" style="stroke:black; stroke-width:1px;" />
<line x1="394.25" y1="689.0" x2="431.25" y2="713.0" style="stroke:black; stroke-width:1px;" />
<line x1="431.25" y1="720.0" x2="431.25" y2="744.0" style="stroke:black; stroke-width:1px;" />
<line x1="431.25" y1="751.0" x2="431.25" y2="775.0" style="stroke:black; stroke-width:1px;" />
<line x1="431.25" y1="782.0" x2="431.25" y2="806.0" style="stroke:black; stroke-width:1px;" />
<line x1="523.25" y1="224.0" x2="453.0" y2="248.0" style="stroke:black; stroke-width:1px;" />
<line x1="523.25" y1="224.0" x2="529.5" y2="248.0" style="stroke:black; stroke-width:1px;" />
<line x1="529.5" y1="255.0" x2="469.0" y2="279.0" style="stroke:black; stroke-width:1px;" />
<line x1="529.5" y1="255.0" x2="501.0" y2="279.0" style="stroke:black; stroke-width:1px;" />
<line x1="529.5" y1="255.0" x2="521.5" y2="279.0" style="stroke:black; stroke-width:1px;" />
<line x1="529.5" y1="255.0" x2="542.0" y2="279.0" style="stroke:black; stroke-width:1px;" />
<line x1="529.5" y1="255.0" x2="590.0" y2="279.0" style="stroke:black; stroke-width:1px;" />
<line x1="590.0" y1="286.0" x2="590.0" y2="310.0" style="stroke:black; stroke-width:1px;" />
<line x1="590.0" y1="317.0" x2="590.0" y2="341.0" style="stroke:black; stroke-width:1px;" />
<line x1="590.0" y1="348.0" x2="590.0" y2="372.0" style="stroke:black; stroke-width:1px;" />
<line x1="590.0" y1="379.0" x2="590.0" y2="403.0" style="stroke:black; stroke-width:1px;" />
<line x1="590.0" y1="410.0" x2="590.0" y2="434.0" style="stroke:black; stroke-width:1px;" />
<line x1="590.0" y1="441.0" x2="590.0" y2="465.0" style="stroke:black; stroke-width:1px;" />
<line x1="590.0" y1="472.0" x2="590.0" y2="496.0" style="stroke:black; stroke-width:1px;" />
<line x1="590.0" y1="503.0" x2="590.0" y2="527.0" style="stroke:black; stroke-width:1px;" />
<line x1="590.0" y1="534.0" x2="590.0" y2="558.0" style="stroke:black; stroke-width:1px;" />
<line x1="590.0" y1="565.0" x2="590.0" y2="589.0" style="stroke:black; stroke-width:1px;" />
<line x1="590.0" y1="596.0" x2="590.0" y2="620.0" style="stroke:black; stroke-width:1px;" />
<line x1="590.0" y1="627.0" x2="590.0" y2="651.0" style="stroke:black; stroke-width:1px;" />
<line x1="590.0" y1="658.0" x2="544.75" y2="682.0" style="stroke:black; stroke-width:1px;" />
<line x1="544.75" y1="689.0" x2="544.75" y2="713.0" style="stroke:black; stroke-width:1px;" />
<line x1="544.75" y1="720.0" x2="544.75" y2="744.0" style="stroke:black; stroke-width:1px;" />
<line x1="544.75" y1="751.0" x2="544.75" y2="775.0" style="stroke:black; stroke-width:1px;" />
<line x1="590.0" y1="658.0" x2="635.25" y2="682.0" style="stroke:black; stroke-width:1px;" />
<line x1="635.25" y1="689.0" x2="598.25" y2="713.0" style="stroke:black; stroke-width:1px;" />
<line x1="635.25" y1="689.0" x2="672.25" y2="713.0" style="stroke:black; stroke-width:1px;" />
<line x1="672.25" y1="720.0" x2="672.25" y2="744.0" style="stroke:black; stroke-width:1px;" />
<line x1="672.25" y1="751.0" x2="672.25" y2="775.0" style="stroke:black; stroke-width:1px;" />
<line x1="672.25" y1="782.0" x2="672.25" y2="806.0" style="stroke:black; stroke-width:1px;" />
<line x1="523.25" y1="224.0" x2="648.75" y2="248.0" style="stroke:black; stroke-width:1px;" />
<line x1="523.25" y1="224.0" x2="765.0" y2="248.0" style="stroke:black; stroke-width:1px;" />
<line x1="765.0" y1="255.0" x2="724.0" y2="279.0" style="stroke:black; stroke-width:1px;" />
<line x1="765.0" y1="255.0" x2="751.0" y2="279.0" style="stroke:black; stroke-width:1px;" />
<line x1="765.0" y1="255.0" x2="806.0" y2="279.0" style="stroke:black; stroke-width:1px;" />
<line x1="806.0" y1="286.0" x2="806.0" y2="310.0" style="stroke:black; stroke-width:1px;" />
<line x1="806.0" y1="317.0" x2="806.0" y2="341.0" style="stroke:black; stroke-width:1px;" />
<line x1="806.0" y1="348.0" x2="806.0" y2="372.0" style="stroke:black; stroke-width:1px;" />
<line x1="806.0" y1="379.0" x2="806.0" y2="403.0" style="stroke:black; stroke-width:1px;" />
<line x1="806.0" y1="410.0" x2="806.0" y2="434.0" style="stroke:black; stroke-width:1px;" />
<line x1="806.0" y1="441.0" x2="806.0" y2="465.0" style="stroke:black; stroke-width:1px;" />
<line x1="806.0" y1="472.0" x2="806.0" y2="496.0" style="stroke:black; stroke-width:1px;" />
<line x1="806.0" y1="503.0" x2="806.0" y2="527.0" style="stroke:black; stroke-width:1px;" />
<line x1="806.0" y1="534.0" x2="806.0" y2="558.0" style="stroke:black; stroke-width:1px;" />
<line x1="806.0" y1="565.0" x2="806.0" y2="589.0" style="stroke:black; stroke-width:1px;" />
<line x1="806.0" y1="596.0" x2="806.0" y2="620.0" style="stroke:black; stroke-width:1px;" />
<line x1="806.0" y1="627.0" x2="806.0" y2="651.0" style="stroke:black; stroke-width:1px;" />
<line x1="806.0" y1="658.0" x2="806.0" y2="682.0" style="stroke:black; stroke-width:1px;" />
<line x1="806.0" y1="689.0" x2="806.0" y2="713.0" style="stroke:black; stroke-width:1px;" />
<line x1="806.0" y1="720.0" x2="806.0" y2="744.0" style="stroke:black; stroke-width:1px;" />
<line x1="806.0" y1="751.0" x2="806.0" y2="775.0" style="stroke:black; stroke-width:1px;" />
<line x1="312.25" y1="7.0" x2="347.75" y2="31.0" style="stroke:black; stroke-width:1px;" />
<rect x="18.5" y="186.0" width="109.0" height="14.0" style="fill:orange; stroke:rgb(0,0,0);" rx="1"/>
<text x="20" y="195" style="font-family:sans-serif;font-size:10px;">
oC_ReadingClause
</text>
<rect x="284.5" y="186.0" width="8.0" height="14.0" style="fill:orange; stroke:rgb(0,0,0);" rx="1"/>
<text x="286" y="195" style="font-family:sans-serif;font-size:10px;">
·
</text>
<rect x="376.75" y="775.0" width="109.0" height="14.0" style="fill:orange; stroke:rgb(0,0,0);" rx="1"/>
<text x="378" y="784" style="font-family:sans-serif;font-size:10px;">
oC_SymbolicName
</text>
<rect x="594.25" y="713.0" width="8.0" height="14.0" style="fill:orange; stroke:rgb(0,0,0);" rx="1"/>
<text x="596" y="722" style="font-family:sans-serif;font-size:10px;">
.
</text>
<rect x="753.5" y="713.0" width="105.0" height="14.0" style="fill:orange; stroke:rgb(0,0,0);" rx="1"/>
<text x="755" y="722" style="font-family:sans-serif;font-size:10px;">
oC_NumberLiteral
</text>
<rect x="536.5" y="434.0" width="107.0" height="14.0" style="fill:orange; stroke:rgb(0,0,0);" rx="1"/>
<text x="538" y="443" style="font-family:sans-serif;font-size:10px;">
oC_NotExpression
</text>
<rect x="298.0" y="341.0" width="102.0" height="14.0" style="fill:orange; stroke:rgb(0,0,0);" rx="1"/>
<text x="300" y="350" style="font-family:sans-serif;font-size:10px;">
oC_OrExpression
</text>
<rect x="620.25" y="744.0" width="104.0" height="14.0" style="fill:orange; stroke:rgb(0,0,0);" rx="1"/>
<text x="622" y="753" style="font-family:sans-serif;font-size:10px;">
oC_SchemaName
</text>
<rect x="712.5" y="620.0" width="187.0" height="14.0" style="fill:orange; stroke:rgb(0,0,0);" rx="1"/>
<text x="714" y="629" style="font-family:sans-serif;font-size:10px;">
oC_PropertyOrLabelsExpression
</text>
<rect x="578.75" y="682.0" width="113.0" height="14.0" style="fill:orange; stroke:rgb(0,0,0);" rx="1"/>
<text x="580" y="691" style="font-family:sans-serif;font-size:10px;">
oC_PropertyLookup
</text>
<rect x="249.25" y="744.0" width="109.0" height="14.0" style="fill:orange; stroke:rgb(0,0,0);" rx="1"/>
<text x="251" y="753" style="font-family:sans-serif;font-size:10px;">
oC_SymbolicName
</text>
<rect x="752.5" y="403.0" width="107.0" height="14.0" style="fill:orange; stroke:rgb(0,0,0);" rx="1"/>
<text x="754" y="412" style="font-family:sans-serif;font-size:10px;">
oC_NotExpression
</text>
<rect x="752.5" y="341.0" width="107.0" height="14.0" style="fill:orange; stroke:rgb(0,0,0);" rx="1"/>
<text x="754" y="350" style="font-family:sans-serif;font-size:10px;">
oC_XorExpression
</text>
<rect x="63.25" y="248.0" width="8.0" height="14.0" style="fill:orange; stroke:rgb(0,0,0);" rx="1"/>
<text x="65" y="257" style="font-family:sans-serif;font-size:10px;">
·
</text>
<rect x="292.5" y="248.0" width="113.0" height="14.0" style="fill:orange; stroke:rgb(0,0,0);" rx="1"/>
<text x="294" y="257" style="font-family:sans-serif;font-size:10px;">
oC_ProjectionItems
</text>
<rect x="112.5" y="403.0" width="91.0" height="14.0" style="fill:orange; stroke:rgb(0,0,0);" rx="1"/>
<text x="114" y="412" style="font-family:sans-serif;font-size:10px;">
oC_NodeLabels
</text>
<rect x="546.0" y="310.0" width="88.0" height="14.0" style="fill:orange; stroke:rgb(0,0,0);" rx="1"/>
<text x="548" y="319" style="font-family:sans-serif;font-size:10px;">
oC_Expression
</text>
<rect x="449.0" y="248.0" width="8.0" height="14.0" style="fill:orange; stroke:rgb(0,0,0);" rx="1"/>
<text x="451" y="257" style="font-family:sans-serif;font-size:10px;">
·
</text>
<rect x="483.0" y="620.0" width="214.0" height="14.0" style="fill:orange; stroke:rgb(0,0,0);" rx="1"/>
<text x="485" y="629" style="font-family:sans-serif;font-size:10px;">
oC_StringListNullOperatorExpression
</text>
<rect x="281.0" y="558.0" width="136.0" height="14.0" style="fill:orange; stroke:rgb(0,0,0);" rx="1"/>
<text x="283" y="567" style="font-family:sans-serif;font-size:10px;">
oC_PowerOfExpression
</text>
<rect x="776.0" y="682.0" width="60.0" height="14.0" style="fill:orange; stroke:rgb(0,0,0);" rx="1"/>
<text x="778" y="691" style="font-family:sans-serif;font-size:10px;">
oC_Literal
</text>
<rect x="536.5" y="372.0" width="107.0" height="14.0" style="fill:orange; stroke:rgb(0,0,0);" rx="1"/>
<text x="538" y="381" style="font-family:sans-serif;font-size:10px;">
oC_XorExpression
</text>
<rect x="644.75" y="248.0" width="8.0" height="14.0" style="fill:orange; stroke:rgb(0,0,0);" rx="1"/>
<text x="646" y="257" style="font-family:sans-serif;font-size:10px;">
·
</text>
<rect x="337.75" y="682.0" width="113.0" height="14.0" style="fill:orange; stroke:rgb(0,0,0);" rx="1"/>
<text x="339" y="691" style="font-family:sans-serif;font-size:10px;">
oC_PropertyLookup
</text>
<rect x="234.75" y="31.0" width="84.0" height="14.0" style="fill:orange; stroke:rgb(0,0,0);" rx="1"/>
<text x="236" y="40" style="font-family:sans-serif;font-size:10px;">
oC_Statement
</text>
<rect x="512.0" y="279.0" width="19.0" height="14.0" style="fill:orange; stroke:rgb(0,0,0);" rx="1"/>
<text x="514" y="288" style="font-family:sans-serif;font-size:10px;">
BY
</text>
<rect x="305.0" y="310.0" width="88.0" height="14.0" style="fill:orange; stroke:rgb(0,0,0);" rx="1"/>
<text x="307" y="319" style="font-family:sans-serif;font-size:10px;">
oC_Expression
</text>
<rect x="779.0" y="651.0" width="54.0" height="14.0" style="fill:orange; stroke:rgb(0,0,0);" rx="1"/>
<text x="781" y="660" style="font-family:sans-serif;font-size:10px;">
oC_Atom
</text>
<rect x="296.0" y="279.0" width="106.0" height="14.0" style="fill:orange; stroke:rgb(0,0,0);" rx="1"/>
<text x="298" y="288" style="font-family:sans-serif;font-size:10px;">
oC_ProjectionItem
</text>
<rect x="294.5" y="403.0" width="109.0" height="14.0" style="fill:orange; stroke:rgb(0,0,0);" rx="1"/>
<text x="296" y="412" style="font-family:sans-serif;font-size:10px;">
oC_AndExpression
</text>
<rect x="255.5" y="651.0" width="187.0" height="14.0" style="fill:orange; stroke:rgb(0,0,0);" rx="1"/>
<text x="257" y="660" style="font-family:sans-serif;font-size:10px;">
oC_PropertyOrLabelsExpression
</text>
<rect x="268.25" y="713.0" width="71.0" height="14.0" style="fill:orange; stroke:rgb(0,0,0);" rx="1"/>
<text x="270" y="722" style="font-family:sans-serif;font-size:10px;">
oC_Variable
</text>
<rect x="496.5" y="651.0" width="187.0" height="14.0" style="fill:orange; stroke:rgb(0,0,0);" rx="1"/>
<text x="498" y="660" style="font-family:sans-serif;font-size:10px;">
oC_PropertyOrLabelsExpression
</text>
<rect x="617.75" y="775.0" width="109.0" height="14.0" style="fill:orange; stroke:rgb(0,0,0);" rx="1"/>
<text x="619" y="784" style="font-family:sans-serif;font-size:10px;">
oC_SymbolicName
</text>
<rect x="699.0" y="589.0" width="214.0" height="14.0" style="fill:orange; stroke:rgb(0,0,0);" rx="1"/>
<text x="701" y="598" style="font-family:sans-serif;font-size:10px;">
oC_StringListNullOperatorExpression
</text>
<rect x="497.0" y="279.0" width="8.0" height="14.0" style="fill:orange; stroke:rgb(0,0,0);" rx="1"/>
<text x="499" y="288" style="font-family:sans-serif;font-size:10px;">
·
</text>
<rect x="504.5" y="496.0" width="171.0" height="14.0" style="fill:orange; stroke:rgb(0,0,0);" rx="1"/>
<text x="506" y="505" style="font-family:sans-serif;font-size:10px;">
oC_AddOrSubtractExpression
</text>
<rect x="468.75" y="217.0" width="109.0" height="14.0" style="fill:orange; stroke:rgb(0,0,0);" rx="1"/>
<text x="470" y="226" style="font-family:sans-serif;font-size:10px;">
oC_ProjectionBody
</text>
<rect x="270.5" y="465.0" width="157.0" height="14.0" style="fill:orange; stroke:rgb(0,0,0);" rx="1"/>
<text x="272" y="474" style="font-family:sans-serif;font-size:10px;">
oC_ComparisonExpression
</text>
<rect x="247.0" y="589.0" width="204.0" height="14.0" style="fill:orange; stroke:rgb(0,0,0);" rx="1"/>
<text x="249" y="598" style="font-family:sans-serif;font-size:10px;">
oC_UnaryAddOrSubtractExpression
</text>
<rect x="421.75" y="806.0" width="19.0" height="14.0" style="fill:orange; stroke:rgb(0,0,0);" rx="1"/>
<text x="423" y="815" style="font-family:sans-serif;font-size:10px;">
url
</text>
<rect x="44.0" y="217.0" width="58.0" height="14.0" style="fill:orange; stroke:rgb(0,0,0);" rx="1"/>
<text x="46" y="226" style="font-family:sans-serif;font-size:10px;">
oC_Match
</text>
<rect x="727.5" y="434.0" width="157.0" height="14.0" style="fill:orange; stroke:rgb(0,0,0);" rx="1"/>
<text x="729" y="443" style="font-family:sans-serif;font-size:10px;">
oC_ComparisonExpression
</text>
<rect x="522.0" y="558.0" width="136.0" height="14.0" style="fill:orange; stroke:rgb(0,0,0);" rx="1"/>
<text x="524" y="567" style="font-family:sans-serif;font-size:10px;">
oC_PowerOfExpression
</text>
<rect x="509.25" y="713.0" width="71.0" height="14.0" style="fill:orange; stroke:rgb(0,0,0);" rx="1"/>
<text x="511" y="722" style="font-family:sans-serif;font-size:10px;">
oC_Variable
</text>
<rect x="738.0" y="527.0" width="136.0" height="14.0" style="fill:orange; stroke:rgb(0,0,0);" rx="1"/>
<text x="740" y="536" style="font-family:sans-serif;font-size:10px;">
oC_PowerOfExpression
</text>
<rect x="325.75" y="31.0" width="44.0" height="14.0" style="fill:orange; stroke:rgb(0,0,0);" rx="1"/>
<text x="327" y="40" style="font-family:sans-serif;font-size:10px;">
&lt;EOF&gt;
</text>
<rect x="126.5" y="465.0" width="8.0" height="14.0" style="fill:orange; stroke:rgb(0,0,0);" rx="1"/>
<text x="128" y="474" style="font-family:sans-serif;font-size:10px;">
:
</text>
<rect x="488.0" y="527.0" width="204.0" height="14.0" style="fill:orange; stroke:rgb(0,0,0);" rx="1"/>
<text x="490" y="536" style="font-family:sans-serif;font-size:10px;">
oC_MultiplyDivideModuloExpression
</text>
<rect x="762.0" y="279.0" width="88.0" height="14.0" style="fill:orange; stroke:rgb(0,0,0);" rx="1"/>
<text x="764" y="288" style="font-family:sans-serif;font-size:10px;">
oC_Expression
</text>
<rect x="720.5" y="465.0" width="171.0" height="14.0" style="fill:orange; stroke:rgb(0,0,0);" rx="1"/>
<text x="722" y="474" style="font-family:sans-serif;font-size:10px;">
oC_AddOrSubtractExpression
</text>
<rect x="609.25" y="713.0" width="126.0" height="14.0" style="fill:orange; stroke:rgb(0,0,0);" rx="1"/>
<text x="611" y="722" style="font-family:sans-serif;font-size:10px;">
oC_PropertyKeyName
</text>
<rect x="210.5" y="403.0" width="8.0" height="14.0" style="fill:orange; stroke:rgb(0,0,0);" rx="1"/>
<text x="212" y="412" style="font-family:sans-serif;font-size:10px;">
)
</text>
<rect x="539.0" y="341.0" width="102.0" height="14.0" style="fill:orange; stroke:rgb(0,0,0);" rx="1"/>
<text x="541" y="350" style="font-family:sans-serif;font-size:10px;">
oC_OrExpression
</text>
<rect x="517.75" y="682.0" width="54.0" height="14.0" style="fill:orange; stroke:rgb(0,0,0);" rx="1"/>
<text x="519" y="691" style="font-family:sans-serif;font-size:10px;">
oC_Atom
</text>
<rect x="279.75" y="0.0" width="65.0" height="14.0" style="fill:orange; stroke:rgb(0,0,0);" rx="1"/>
<text x="281" y="9" style="font-family:sans-serif;font-size:10px;">
oC_Cypher
</text>
<rect x="33.75" y="310.0" width="155.0" height="14.0" style="fill:orange; stroke:rgb(0,0,0);" rx="1"/>
<text x="35" y="319" style="font-family:sans-serif;font-size:10px;">
oC_AnonymousPatternPart
</text>
<rect x="553.0" y="279.0" width="74.0" height="14.0" style="fill:orange; stroke:rgb(0,0,0);" rx="1"/>
<text x="555" y="288" style="font-family:sans-serif;font-size:10px;">
oC_SortItem
</text>
<rect x="704.0" y="496.0" width="204.0" height="14.0" style="fill:orange; stroke:rgb(0,0,0);" rx="1"/>
<text x="706" y="505" style="font-family:sans-serif;font-size:10px;">
oC_MultiplyDivideModuloExpression
</text>
<rect x="756.0" y="744.0" width="100.0" height="14.0" style="fill:orange; stroke:rgb(0,0,0);" rx="1"/>
<text x="758" y="753" style="font-family:sans-serif;font-size:10px;">
oC_IntegerLiteral
</text>
<rect x="298.25" y="775.0" width="11.0" height="14.0" style="fill:orange; stroke:rgb(0,0,0);" rx="1"/>
<text x="300" y="784" style="font-family:sans-serif;font-size:10px;">
a
</text>
<rect x="488.0" y="589.0" width="204.0" height="14.0" style="fill:orange; stroke:rgb(0,0,0);" rx="1"/>
<text x="490" y="598" style="font-family:sans-serif;font-size:10px;">
oC_UnaryAddOrSubtractExpression
</text>
<rect x="55.25" y="341.0" width="112.0" height="14.0" style="fill:orange; stroke:rgb(0,0,0);" rx="1"/>
<text x="57" y="350" style="font-family:sans-serif;font-size:10px;">
oC_PatternElement
</text>
<rect x="133.5" y="496.0" width="104.0" height="14.0" style="fill:orange; stroke:rgb(0,0,0);" rx="1"/>
<text x="135" y="505" style="font-family:sans-serif;font-size:10px;">
oC_SchemaName
</text>
<rect x="263.5" y="496.0" width="171.0" height="14.0" style="fill:orange; stroke:rgb(0,0,0);" rx="1"/>
<text x="265" y="505" style="font-family:sans-serif;font-size:10px;">
oC_AddOrSubtractExpression
</text>
<rect x="295.5" y="372.0" width="107.0" height="14.0" style="fill:orange; stroke:rgb(0,0,0);" rx="1"/>
<text x="297" y="381" style="font-family:sans-serif;font-size:10px;">
oC_XorExpression
</text>
<rect x="535.5" y="403.0" width="109.0" height="14.0" style="fill:orange; stroke:rgb(0,0,0);" rx="1"/>
<text x="537" y="412" style="font-family:sans-serif;font-size:10px;">
oC_AndExpression
</text>
<rect x="218.25" y="155.0" width="117.0" height="14.0" style="fill:orange; stroke:rgb(0,0,0);" rx="1"/>
<text x="220" y="164" style="font-family:sans-serif;font-size:10px;">
oC_SinglePartQuery
</text>
<rect x="413.75" y="217.0" width="48.0" height="14.0" style="fill:orange; stroke:rgb(0,0,0);" rx="1"/>
<text x="415" y="226" style="font-family:sans-serif;font-size:10px;">
RETURN
</text>
<rect x="13.25" y="248.0" width="43.0" height="14.0" style="fill:orange; stroke:rgb(0,0,0);" rx="1"/>
<text x="15" y="257" style="font-family:sans-serif;font-size:10px;">
MATCH
</text>
<rect x="353.25" y="713.0" width="8.0" height="14.0" style="fill:orange; stroke:rgb(0,0,0);" rx="1"/>
<text x="355" y="722" style="font-family:sans-serif;font-size:10px;">
.
</text>
<rect x="63.75" y="372.0" width="95.0" height="14.0" style="fill:orange; stroke:rgb(0,0,0);" rx="1"/>
<text x="65" y="381" style="font-family:sans-serif;font-size:10px;">
oC_NodePattern
</text>
<rect x="66.75" y="279.0" width="89.0" height="14.0" style="fill:orange; stroke:rgb(0,0,0);" rx="1"/>
<text x="68" y="288" style="font-family:sans-serif;font-size:10px;">
oC_PatternPart
</text>
<rect x="448.0" y="279.0" width="42.0" height="14.0" style="fill:orange; stroke:rgb(0,0,0);" rx="1"/>
<text x="450" y="288" style="font-family:sans-serif;font-size:10px;">
ORDER
</text>
<rect x="511.5" y="465.0" width="157.0" height="14.0" style="fill:orange; stroke:rgb(0,0,0);" rx="1"/>
<text x="513" y="474" style="font-family:sans-serif;font-size:10px;">
oC_ComparisonExpression
</text>
<rect x="247.0" y="527.0" width="204.0" height="14.0" style="fill:orange; stroke:rgb(0,0,0);" rx="1"/>
<text x="249" y="536" style="font-family:sans-serif;font-size:10px;">
oC_MultiplyDivideModuloExpression
</text>
<rect x="449.5" y="186.0" width="62.0" height="14.0" style="fill:orange; stroke:rgb(0,0,0);" rx="1"/>
<text x="451" y="195" style="font-family:sans-serif;font-size:10px;">
oC_Return
</text>
<rect x="49.0" y="465.0" width="11.0" height="14.0" style="fill:orange; stroke:rgb(0,0,0);" rx="1"/>
<text x="51" y="474" style="font-family:sans-serif;font-size:10px;">
a
</text>
<rect x="247.25" y="62.0" width="59.0" height="14.0" style="fill:orange; stroke:rgb(0,0,0);" rx="1"/>
<text x="249" y="71" style="font-family:sans-serif;font-size:10px;">
oC_Query
</text>
<rect x="229.75" y="124.0" width="94.0" height="14.0" style="fill:orange; stroke:rgb(0,0,0);" rx="1"/>
<text x="231" y="133" style="font-family:sans-serif;font-size:10px;">
oC_SingleQuery
</text>
<rect x="276.75" y="682.0" width="54.0" height="14.0" style="fill:orange; stroke:rgb(0,0,0);" rx="1"/>
<text x="278" y="691" style="font-family:sans-serif;font-size:10px;">
oC_Atom
</text>
<rect x="379.25" y="744.0" width="104.0" height="14.0" style="fill:orange; stroke:rgb(0,0,0);" rx="1"/>
<text x="381" y="753" style="font-family:sans-serif;font-size:10px;">
oC_SchemaName
</text>
<rect x="708.0" y="279.0" width="32.0" height="14.0" style="fill:orange; stroke:rgb(0,0,0);" rx="1"/>
<text x="710" y="288" style="font-family:sans-serif;font-size:10px;">
LIMIT
</text>
<rect x="538.0" y="279.0" width="8.0" height="14.0" style="fill:orange; stroke:rgb(0,0,0);" rx="1"/>
<text x="540" y="288" style="font-family:sans-serif;font-size:10px;">
·
</text>
<rect x="490.25" y="744.0" width="109.0" height="14.0" style="fill:orange; stroke:rgb(0,0,0);" rx="1"/>
<text x="492" y="753" style="font-family:sans-serif;font-size:10px;">
oC_SymbolicName
</text>
<rect x="793.5" y="775.0" width="25.0" height="14.0" style="fill:orange; stroke:rgb(0,0,0);" rx="1"/>
<text x="795" y="784" style="font-family:sans-serif;font-size:10px;">
100
</text>
<rect x="368.25" y="713.0" width="126.0" height="14.0" style="fill:orange; stroke:rgb(0,0,0);" rx="1"/>
<text x="370" y="722" style="font-family:sans-serif;font-size:10px;">
oC_PropertyKeyName
</text>
<rect x="704.0" y="558.0" width="204.0" height="14.0" style="fill:orange; stroke:rgb(0,0,0);" rx="1"/>
<text x="706" y="567" style="font-family:sans-serif;font-size:10px;">
oC_UnaryAddOrSubtractExpression
</text>
<rect x="155.5" y="558.0" width="60.0" height="14.0" style="fill:orange; stroke:rgb(0,0,0);" rx="1"/>
<text x="157" y="567" style="font-family:sans-serif;font-size:10px;">
University
</text>
<rect x="295.5" y="434.0" width="107.0" height="14.0" style="fill:orange; stroke:rgb(0,0,0);" rx="1"/>
<text x="297" y="443" style="font-family:sans-serif;font-size:10px;">
oC_NotExpression
</text>
<rect x="131.0" y="527.0" width="109.0" height="14.0" style="fill:orange; stroke:rgb(0,0,0);" rx="1"/>
<text x="133" y="536" style="font-family:sans-serif;font-size:10px;">
oC_SymbolicName
</text>
<rect x="78.25" y="248.0" width="66.0" height="14.0" style="fill:orange; stroke:rgb(0,0,0);" rx="1"/>
<text x="80" y="257" style="font-family:sans-serif;font-size:10px;">
oC_Pattern
</text>
<rect x="19.0" y="403.0" width="71.0" height="14.0" style="fill:orange; stroke:rgb(0,0,0);" rx="1"/>
<text x="21" y="412" style="font-family:sans-serif;font-size:10px;">
oC_Variable
</text>
<rect x="662.75" y="806.0" width="19.0" height="14.0" style="fill:orange; stroke:rgb(0,0,0);" rx="1"/>
<text x="664" y="815" style="font-family:sans-serif;font-size:10px;">
url
</text>
<rect x="747.0" y="279.0" width="8.0" height="14.0" style="fill:orange; stroke:rgb(0,0,0);" rx="1"/>
<text x="749" y="288" style="font-family:sans-serif;font-size:10px;">
·
</text>
<rect x="755.0" y="310.0" width="102.0" height="14.0" style="fill:orange; stroke:rgb(0,0,0);" rx="1"/>
<text x="757" y="319" style="font-family:sans-serif;font-size:10px;">
oC_OrExpression
</text>
<rect x="751.5" y="372.0" width="109.0" height="14.0" style="fill:orange; stroke:rgb(0,0,0);" rx="1"/>
<text x="753" y="381" style="font-family:sans-serif;font-size:10px;">
oC_AndExpression
</text>
<rect x="277.5" y="248.0" width="8.0" height="14.0" style="fill:orange; stroke:rgb(0,0,0);" rx="1"/>
<text x="279" y="257" style="font-family:sans-serif;font-size:10px;">
·
</text>
<rect x="4.0" y="403.0" width="8.0" height="14.0" style="fill:orange; stroke:rgb(0,0,0);" rx="1"/>
<text x="6" y="412" style="font-family:sans-serif;font-size:10px;">
(
</text>
<rect x="500.5" y="248.0" width="58.0" height="14.0" style="fill:orange; stroke:rgb(0,0,0);" rx="1"/>
<text x="502" y="257" style="font-family:sans-serif;font-size:10px;">
oC_Order
</text>
<rect x="539.25" y="775.0" width="11.0" height="14.0" style="fill:orange; stroke:rgb(0,0,0);" rx="1"/>
<text x="541" y="784" style="font-family:sans-serif;font-size:10px;">
a
</text>
<rect x="0.0" y="434.0" width="109.0" height="14.0" style="fill:orange; stroke:rgb(0,0,0);" rx="1"/>
<text x="2" y="443" style="font-family:sans-serif;font-size:10px;">
oC_SymbolicName
</text>
<rect x="141.5" y="465.0" width="88.0" height="14.0" style="fill:orange; stroke:rgb(0,0,0);" rx="1"/>
<text x="143" y="474" style="font-family:sans-serif;font-size:10px;">
oC_LabelName
</text>
<rect x="116.0" y="434.0" width="84.0" height="14.0" style="fill:orange; stroke:rgb(0,0,0);" rx="1"/>
<text x="118" y="443" style="font-family:sans-serif;font-size:10px;">
oC_NodeLabel
</text>
<rect x="242.0" y="620.0" width="214.0" height="14.0" style="fill:orange; stroke:rgb(0,0,0);" rx="1"/>
<text x="244" y="629" style="font-family:sans-serif;font-size:10px;">
oC_StringListNullOperatorExpression
</text>
<rect x="739.0" y="248.0" width="52.0" height="14.0" style="fill:orange; stroke:rgb(0,0,0);" rx="1"/>
<text x="741" y="257" style="font-family:sans-serif;font-size:10px;">
oC_Limit
</text>
<rect x="225.75" y="93.0" width="102.0" height="14.0" style="fill:orange; stroke:rgb(0,0,0);" rx="1"/>
<text x="227" y="102" style="font-family:sans-serif;font-size:10px;">
oC_RegularQuery
</text>
</svg>